<mxfile host="Electron" modified="2023-05-19T16:38:58.109Z" agent="Mozilla/5.0 (Windows NT 10.0; Win64; x64) AppleWebKit/537.36 (KHTML, like Gecko) draw.io/21.1.2 Chrome/106.0.5249.199 Electron/21.4.3 Safari/537.36" etag="ul0zuOz2gRFn7cdoYaq6" version="21.1.2" type="device">
  <diagram name="Página-1" id="BWyiMKpto5maT0TNBfAM">
    <mxGraphModel dx="1783" dy="646" grid="1" gridSize="10" guides="1" tooltips="1" connect="1" arrows="1" fold="1" page="1" pageScale="1" pageWidth="827" pageHeight="1169" math="0" shadow="0">
      <root>
        <mxCell id="0" />
        <mxCell id="1" parent="0" />
        <mxCell id="feKV-zDJUrqjYpNTKVkU-1" value="Profesor" style="shape=umlActor;verticalLabelPosition=bottom;verticalAlign=top;html=1;outlineConnect=0;" parent="1" vertex="1">
          <mxGeometry x="20" y="510" width="30" height="60" as="geometry" />
        </mxCell>
        <mxCell id="feKV-zDJUrqjYpNTKVkU-9" style="edgeStyle=orthogonalEdgeStyle;rounded=0;orthogonalLoop=1;jettySize=auto;html=1;endArrow=none;endFill=0;entryX=0.5;entryY=0.5;entryDx=0;entryDy=0;entryPerimeter=0;exitX=0.5;exitY=1;exitDx=0;exitDy=0;" parent="1" source="feKV-zDJUrqjYpNTKVkU-2" target="feKV-zDJUrqjYpNTKVkU-1" edge="1">
          <mxGeometry relative="1" as="geometry">
            <Array as="points">
              <mxPoint x="120" y="360" />
              <mxPoint x="80" y="360" />
              <mxPoint x="80" y="540" />
            </Array>
            <mxPoint x="100" y="500" as="targetPoint" />
          </mxGeometry>
        </mxCell>
        <mxCell id="feKV-zDJUrqjYpNTKVkU-2" value="Recibir actas" style="ellipse;whiteSpace=wrap;html=1;" parent="1" vertex="1">
          <mxGeometry x="60" y="200" width="120" height="80" as="geometry" />
        </mxCell>
        <mxCell id="feKV-zDJUrqjYpNTKVkU-3" value="Completar acta con nota del alumno" style="ellipse;whiteSpace=wrap;html=1;" parent="1" vertex="1">
          <mxGeometry x="370.00000000000006" y="20.000000000000014" width="120" height="80" as="geometry" />
        </mxCell>
        <mxCell id="feKV-zDJUrqjYpNTKVkU-4" value="Añadir un alumno a un acta" style="ellipse;whiteSpace=wrap;html=1;" parent="1" vertex="1">
          <mxGeometry x="370" y="110" width="120" height="80" as="geometry" />
        </mxCell>
        <mxCell id="feKV-zDJUrqjYpNTKVkU-5" value="Borrar un alumno de un acta&amp;nbsp;" style="ellipse;whiteSpace=wrap;html=1;" parent="1" vertex="1">
          <mxGeometry x="370" y="200" width="120" height="80" as="geometry" />
        </mxCell>
        <mxCell id="feKV-zDJUrqjYpNTKVkU-18" style="edgeStyle=orthogonalEdgeStyle;rounded=0;orthogonalLoop=1;jettySize=auto;html=1;endArrow=none;endFill=0;exitX=0.5;exitY=0;exitDx=0;exitDy=0;" parent="1" source="feKV-zDJUrqjYpNTKVkU-10" edge="1">
          <mxGeometry relative="1" as="geometry">
            <Array as="points">
              <mxPoint x="120" y="600" />
              <mxPoint x="80" y="600" />
              <mxPoint x="80" y="540" />
            </Array>
            <mxPoint x="60" y="540" as="targetPoint" />
          </mxGeometry>
        </mxCell>
        <mxCell id="feKV-zDJUrqjYpNTKVkU-10" value="Realizar otras acciones" style="ellipse;whiteSpace=wrap;html=1;" parent="1" vertex="1">
          <mxGeometry x="60" y="740" width="120" height="80" as="geometry" />
        </mxCell>
        <mxCell id="feKV-zDJUrqjYpNTKVkU-12" value="" style="endArrow=classic;html=1;rounded=0;entryX=1;entryY=0.5;entryDx=0;entryDy=0;exitX=0;exitY=0.5;exitDx=0;exitDy=0;dashed=1;" parent="1" source="feKV-zDJUrqjYpNTKVkU-3" target="feKV-zDJUrqjYpNTKVkU-2" edge="1">
          <mxGeometry relative="1" as="geometry">
            <mxPoint x="290" y="340" as="sourcePoint" />
            <mxPoint x="390" y="340" as="targetPoint" />
            <Array as="points">
              <mxPoint x="200" y="60" />
              <mxPoint x="200" y="126" />
              <mxPoint x="200" y="180" />
              <mxPoint x="200" y="290" />
              <mxPoint x="200" y="240" />
            </Array>
          </mxGeometry>
        </mxCell>
        <mxCell id="feKV-zDJUrqjYpNTKVkU-13" value="&amp;lt;&amp;lt;extends&amp;gt;&amp;gt;" style="edgeLabel;resizable=0;html=1;align=center;verticalAlign=middle;" parent="feKV-zDJUrqjYpNTKVkU-12" connectable="0" vertex="1">
          <mxGeometry relative="1" as="geometry">
            <mxPoint x="90" y="-57" as="offset" />
          </mxGeometry>
        </mxCell>
        <mxCell id="feKV-zDJUrqjYpNTKVkU-14" value="" style="endArrow=classic;html=1;rounded=0;entryX=1;entryY=0.5;entryDx=0;entryDy=0;exitX=0;exitY=0.5;exitDx=0;exitDy=0;dashed=1;" parent="1" source="feKV-zDJUrqjYpNTKVkU-5" target="feKV-zDJUrqjYpNTKVkU-2" edge="1">
          <mxGeometry relative="1" as="geometry">
            <mxPoint x="420" y="160" as="sourcePoint" />
            <mxPoint x="250" y="160" as="targetPoint" />
            <Array as="points" />
          </mxGeometry>
        </mxCell>
        <mxCell id="feKV-zDJUrqjYpNTKVkU-15" value="&amp;lt;&amp;lt;extends&amp;gt;&amp;gt;" style="edgeLabel;resizable=0;html=1;align=center;verticalAlign=middle;" parent="feKV-zDJUrqjYpNTKVkU-14" connectable="0" vertex="1">
          <mxGeometry relative="1" as="geometry">
            <mxPoint x="15" y="-1" as="offset" />
          </mxGeometry>
        </mxCell>
        <mxCell id="feKV-zDJUrqjYpNTKVkU-16" value="" style="endArrow=classic;html=1;rounded=0;exitX=0;exitY=0.5;exitDx=0;exitDy=0;dashed=1;entryX=1;entryY=0.5;entryDx=0;entryDy=0;" parent="1" source="feKV-zDJUrqjYpNTKVkU-4" edge="1" target="feKV-zDJUrqjYpNTKVkU-2">
          <mxGeometry relative="1" as="geometry">
            <mxPoint x="430" y="170" as="sourcePoint" />
            <mxPoint x="240" y="150" as="targetPoint" />
            <Array as="points">
              <mxPoint x="200" y="150" />
              <mxPoint x="200" y="210" />
              <mxPoint x="200" y="290" />
              <mxPoint x="200" y="240" />
            </Array>
          </mxGeometry>
        </mxCell>
        <mxCell id="feKV-zDJUrqjYpNTKVkU-17" value="&amp;lt;&amp;lt;extends&amp;gt;&amp;gt;" style="edgeLabel;resizable=0;html=1;align=center;verticalAlign=middle;" parent="feKV-zDJUrqjYpNTKVkU-16" connectable="0" vertex="1">
          <mxGeometry relative="1" as="geometry">
            <mxPoint x="90" y="-12" as="offset" />
          </mxGeometry>
        </mxCell>
        <mxCell id="feKV-zDJUrqjYpNTKVkU-20" value="Consultar informacion del alumno seleccionao" style="ellipse;whiteSpace=wrap;html=1;" parent="1" vertex="1">
          <mxGeometry x="371.26000000000005" y="420" width="120" height="80" as="geometry" />
        </mxCell>
        <mxCell id="feKV-zDJUrqjYpNTKVkU-21" value="Obtener estadística de calificaciones del grupo" style="ellipse;whiteSpace=wrap;html=1;" parent="1" vertex="1">
          <mxGeometry x="371.26" y="510" width="120" height="80" as="geometry" />
        </mxCell>
        <mxCell id="feKV-zDJUrqjYpNTKVkU-22" value="Consultar porcentaje de presentados y no presentados" style="ellipse;whiteSpace=wrap;html=1;" parent="1" vertex="1">
          <mxGeometry x="371.26" y="600" width="120" height="80" as="geometry" />
        </mxCell>
        <mxCell id="feKV-zDJUrqjYpNTKVkU-23" value="Visualizar gráfico calificaciones" style="ellipse;whiteSpace=wrap;html=1;" parent="1" vertex="1">
          <mxGeometry x="371.26000000000005" y="690" width="120" height="80" as="geometry" />
        </mxCell>
        <mxCell id="feKV-zDJUrqjYpNTKVkU-24" value="Usar calculadora" style="ellipse;whiteSpace=wrap;html=1;" parent="1" vertex="1">
          <mxGeometry x="616.8" y="780" width="120" height="80" as="geometry" />
        </mxCell>
        <mxCell id="feKV-zDJUrqjYpNTKVkU-25" value="Introducir notas" style="ellipse;whiteSpace=wrap;html=1;" parent="1" vertex="1">
          <mxGeometry x="371.26" y="780" width="120" height="80" as="geometry" />
        </mxCell>
        <mxCell id="feKV-zDJUrqjYpNTKVkU-26" value="Volcar resultado en la casilla" style="ellipse;whiteSpace=wrap;html=1;" parent="1" vertex="1">
          <mxGeometry x="616.8" y="650" width="120" height="80" as="geometry" />
        </mxCell>
        <mxCell id="feKV-zDJUrqjYpNTKVkU-27" value="Redondear cifras" style="ellipse;whiteSpace=wrap;html=1;" parent="1" vertex="1">
          <mxGeometry x="616.8" y="500" width="120" height="80" as="geometry" />
        </mxCell>
        <mxCell id="feKV-zDJUrqjYpNTKVkU-28" value="Importar listas de alumnos y calificaciones" style="ellipse;whiteSpace=wrap;html=1;" parent="1" vertex="1">
          <mxGeometry x="371.26" y="870" width="120" height="80" as="geometry" />
        </mxCell>
        <mxCell id="feKV-zDJUrqjYpNTKVkU-29" value="Exportar listas de alumnos y calificaciones" style="ellipse;whiteSpace=wrap;html=1;" parent="1" vertex="1">
          <mxGeometry x="371.26" y="960" width="120" height="80" as="geometry" />
        </mxCell>
        <mxCell id="feKV-zDJUrqjYpNTKVkU-30" value="Imprimir" style="ellipse;whiteSpace=wrap;html=1;" parent="1" vertex="1">
          <mxGeometry x="370" y="1050" width="120" height="80" as="geometry" />
        </mxCell>
        <mxCell id="feKV-zDJUrqjYpNTKVkU-33" value="Integrar actas de varios grupos en una sola acta" style="ellipse;whiteSpace=wrap;html=1;" parent="1" vertex="1">
          <mxGeometry x="370" y="290" width="120" height="80" as="geometry" />
        </mxCell>
        <mxCell id="feKV-zDJUrqjYpNTKVkU-34" value="" style="endArrow=classic;html=1;rounded=0;entryX=1;entryY=0.5;entryDx=0;entryDy=0;exitX=0;exitY=0.5;exitDx=0;exitDy=0;dashed=1;" parent="1" source="feKV-zDJUrqjYpNTKVkU-33" target="feKV-zDJUrqjYpNTKVkU-2" edge="1">
          <mxGeometry relative="1" as="geometry">
            <mxPoint x="470" y="270" as="sourcePoint" />
            <mxPoint x="250" y="160" as="targetPoint" />
            <Array as="points">
              <mxPoint x="210" y="330" />
              <mxPoint x="200" y="330" />
              <mxPoint x="200" y="290" />
              <mxPoint x="200" y="240" />
            </Array>
          </mxGeometry>
        </mxCell>
        <mxCell id="feKV-zDJUrqjYpNTKVkU-35" value="&amp;lt;&amp;lt;extends&amp;gt;&amp;gt;" style="edgeLabel;resizable=0;html=1;align=center;verticalAlign=middle;" parent="feKV-zDJUrqjYpNTKVkU-34" connectable="0" vertex="1">
          <mxGeometry relative="1" as="geometry">
            <mxPoint x="55" y="-3" as="offset" />
          </mxGeometry>
        </mxCell>
        <mxCell id="feKV-zDJUrqjYpNTKVkU-36" value="" style="endArrow=classic;html=1;rounded=0;entryX=1;entryY=0.5;entryDx=0;entryDy=0;exitX=0;exitY=0.5;exitDx=0;exitDy=0;dashed=1;" parent="1" source="feKV-zDJUrqjYpNTKVkU-20" target="feKV-zDJUrqjYpNTKVkU-10" edge="1">
          <mxGeometry relative="1" as="geometry">
            <mxPoint x="549" y="590" as="sourcePoint" />
            <mxPoint x="235" y="941.6000000000004" as="targetPoint" />
            <Array as="points">
              <mxPoint x="240" y="460" />
              <mxPoint x="200" y="460" />
              <mxPoint x="200" y="480" />
              <mxPoint x="200" y="660" />
              <mxPoint x="200" y="780" />
            </Array>
          </mxGeometry>
        </mxCell>
        <mxCell id="feKV-zDJUrqjYpNTKVkU-37" value="&amp;lt;&amp;lt;extends&amp;gt;&amp;gt;" style="edgeLabel;resizable=0;html=1;align=center;verticalAlign=middle;" parent="feKV-zDJUrqjYpNTKVkU-36" connectable="0" vertex="1">
          <mxGeometry relative="1" as="geometry">
            <mxPoint x="100" y="5" as="offset" />
          </mxGeometry>
        </mxCell>
        <mxCell id="feKV-zDJUrqjYpNTKVkU-38" value="" style="endArrow=classic;html=1;rounded=0;entryX=1;entryY=0.5;entryDx=0;entryDy=0;dashed=1;exitX=0;exitY=0.5;exitDx=0;exitDy=0;" parent="1" source="feKV-zDJUrqjYpNTKVkU-21" target="feKV-zDJUrqjYpNTKVkU-10" edge="1">
          <mxGeometry relative="1" as="geometry">
            <mxPoint x="365" y="580" as="sourcePoint" />
            <mxPoint x="234" y="950" as="targetPoint" />
            <Array as="points">
              <mxPoint x="200" y="550" />
              <mxPoint x="200" y="640" />
              <mxPoint x="200" y="720" />
              <mxPoint x="200" y="780" />
            </Array>
          </mxGeometry>
        </mxCell>
        <mxCell id="feKV-zDJUrqjYpNTKVkU-39" value="&amp;lt;&amp;lt;extends&amp;gt;&amp;gt;" style="edgeLabel;resizable=0;html=1;align=center;verticalAlign=middle;" parent="feKV-zDJUrqjYpNTKVkU-38" connectable="0" vertex="1">
          <mxGeometry relative="1" as="geometry">
            <mxPoint x="90" y="-129" as="offset" />
          </mxGeometry>
        </mxCell>
        <mxCell id="feKV-zDJUrqjYpNTKVkU-40" value="" style="endArrow=classic;html=1;rounded=0;exitX=0;exitY=0.5;exitDx=0;exitDy=0;dashed=1;entryX=1;entryY=0.5;entryDx=0;entryDy=0;" parent="1" source="feKV-zDJUrqjYpNTKVkU-22" target="feKV-zDJUrqjYpNTKVkU-10" edge="1">
          <mxGeometry relative="1" as="geometry">
            <mxPoint x="392" y="690" as="sourcePoint" />
            <mxPoint x="235.0000000000059" y="950" as="targetPoint" />
            <Array as="points">
              <mxPoint x="200" y="640" />
              <mxPoint x="200" y="720" />
              <mxPoint x="200" y="780" />
            </Array>
          </mxGeometry>
        </mxCell>
        <mxCell id="feKV-zDJUrqjYpNTKVkU-41" value="&amp;lt;&amp;lt;extends&amp;gt;&amp;gt;" style="edgeLabel;resizable=0;html=1;align=center;verticalAlign=middle;" parent="feKV-zDJUrqjYpNTKVkU-40" connectable="0" vertex="1">
          <mxGeometry relative="1" as="geometry">
            <mxPoint x="84" as="offset" />
          </mxGeometry>
        </mxCell>
        <mxCell id="feKV-zDJUrqjYpNTKVkU-42" value="" style="endArrow=classic;html=1;rounded=0;entryX=1;entryY=0.5;entryDx=0;entryDy=0;exitX=0;exitY=0.5;exitDx=0;exitDy=0;dashed=1;" parent="1" source="feKV-zDJUrqjYpNTKVkU-23" target="feKV-zDJUrqjYpNTKVkU-10" edge="1">
          <mxGeometry relative="1" as="geometry">
            <mxPoint x="390" y="749" as="sourcePoint" />
            <mxPoint x="230" y="950" as="targetPoint" />
            <Array as="points">
              <mxPoint x="230" y="730" />
              <mxPoint x="200" y="730" />
              <mxPoint x="200" y="780" />
            </Array>
          </mxGeometry>
        </mxCell>
        <mxCell id="feKV-zDJUrqjYpNTKVkU-43" value="&amp;lt;&amp;lt;extends&amp;gt;&amp;gt;" style="edgeLabel;resizable=0;html=1;align=center;verticalAlign=middle;" parent="feKV-zDJUrqjYpNTKVkU-42" connectable="0" vertex="1">
          <mxGeometry relative="1" as="geometry">
            <mxPoint x="40" as="offset" />
          </mxGeometry>
        </mxCell>
        <mxCell id="feKV-zDJUrqjYpNTKVkU-44" value="" style="endArrow=classic;html=1;rounded=0;entryX=1;entryY=0.5;entryDx=0;entryDy=0;exitX=0;exitY=0.5;exitDx=0;exitDy=0;dashed=1;" parent="1" source="feKV-zDJUrqjYpNTKVkU-25" target="feKV-zDJUrqjYpNTKVkU-10" edge="1">
          <mxGeometry relative="1" as="geometry">
            <mxPoint x="449" y="820" as="sourcePoint" />
            <mxPoint x="235.0000000000059" y="950" as="targetPoint" />
            <Array as="points">
              <mxPoint x="200" y="820" />
              <mxPoint x="200" y="780" />
            </Array>
          </mxGeometry>
        </mxCell>
        <mxCell id="feKV-zDJUrqjYpNTKVkU-45" value="&amp;lt;&amp;lt;extends&amp;gt;&amp;gt;" style="edgeLabel;resizable=0;html=1;align=center;verticalAlign=middle;" parent="feKV-zDJUrqjYpNTKVkU-44" connectable="0" vertex="1">
          <mxGeometry relative="1" as="geometry">
            <mxPoint x="35" as="offset" />
          </mxGeometry>
        </mxCell>
        <mxCell id="feKV-zDJUrqjYpNTKVkU-46" value="" style="endArrow=classic;html=1;rounded=0;exitX=0;exitY=0.5;exitDx=0;exitDy=0;dashed=1;entryX=1;entryY=0.5;entryDx=0;entryDy=0;" parent="1" source="feKV-zDJUrqjYpNTKVkU-28" target="feKV-zDJUrqjYpNTKVkU-10" edge="1">
          <mxGeometry relative="1" as="geometry">
            <mxPoint x="419" y="900" as="sourcePoint" />
            <mxPoint x="120" y="900" as="targetPoint" />
            <Array as="points">
              <mxPoint x="200" y="910" />
              <mxPoint x="200" y="780" />
            </Array>
          </mxGeometry>
        </mxCell>
        <mxCell id="feKV-zDJUrqjYpNTKVkU-47" value="&amp;lt;&amp;lt;extends&amp;gt;&amp;gt;" style="edgeLabel;resizable=0;html=1;align=center;verticalAlign=middle;" parent="feKV-zDJUrqjYpNTKVkU-46" connectable="0" vertex="1">
          <mxGeometry relative="1" as="geometry">
            <mxPoint x="80" as="offset" />
          </mxGeometry>
        </mxCell>
        <mxCell id="feKV-zDJUrqjYpNTKVkU-48" value="" style="endArrow=classic;html=1;rounded=0;entryX=1;entryY=0.5;entryDx=0;entryDy=0;exitX=0;exitY=0.5;exitDx=0;exitDy=0;dashed=1;" parent="1" source="feKV-zDJUrqjYpNTKVkU-29" target="feKV-zDJUrqjYpNTKVkU-10" edge="1">
          <mxGeometry relative="1" as="geometry">
            <mxPoint x="419" y="1020" as="sourcePoint" />
            <mxPoint x="235.0000000000059" y="950" as="targetPoint" />
            <Array as="points">
              <mxPoint x="200" y="1000" />
              <mxPoint x="200" y="780" />
            </Array>
          </mxGeometry>
        </mxCell>
        <mxCell id="feKV-zDJUrqjYpNTKVkU-49" value="&amp;lt;&amp;lt;extends&amp;gt;&amp;gt;" style="edgeLabel;resizable=0;html=1;align=center;verticalAlign=middle;" parent="feKV-zDJUrqjYpNTKVkU-48" connectable="0" vertex="1">
          <mxGeometry relative="1" as="geometry">
            <mxPoint x="90" y="34" as="offset" />
          </mxGeometry>
        </mxCell>
        <mxCell id="feKV-zDJUrqjYpNTKVkU-50" value="" style="endArrow=classic;html=1;rounded=0;entryX=1;entryY=0.5;entryDx=0;entryDy=0;exitX=0;exitY=0.5;exitDx=0;exitDy=0;dashed=1;" parent="1" source="feKV-zDJUrqjYpNTKVkU-30" target="feKV-zDJUrqjYpNTKVkU-10" edge="1">
          <mxGeometry relative="1" as="geometry">
            <mxPoint x="365" y="1100" as="sourcePoint" />
            <mxPoint x="229.99999999999636" y="780" as="targetPoint" />
            <Array as="points">
              <mxPoint x="200" y="1090" />
              <mxPoint x="200" y="1040" />
              <mxPoint x="200" y="780" />
            </Array>
          </mxGeometry>
        </mxCell>
        <mxCell id="feKV-zDJUrqjYpNTKVkU-51" value="&amp;lt;&amp;lt;extends&amp;gt;&amp;gt;" style="edgeLabel;resizable=0;html=1;align=center;verticalAlign=middle;" parent="feKV-zDJUrqjYpNTKVkU-50" connectable="0" vertex="1">
          <mxGeometry relative="1" as="geometry">
            <mxPoint x="90" y="81" as="offset" />
          </mxGeometry>
        </mxCell>
        <mxCell id="feKV-zDJUrqjYpNTKVkU-56" value="" style="endArrow=classic;html=1;rounded=0;entryX=0;entryY=0.5;entryDx=0;entryDy=0;exitX=1;exitY=0.5;exitDx=0;exitDy=0;dashed=1;" parent="1" source="feKV-zDJUrqjYpNTKVkU-25" target="feKV-zDJUrqjYpNTKVkU-24" edge="1">
          <mxGeometry relative="1" as="geometry">
            <mxPoint x="732.5899999999999" y="870" as="sourcePoint" />
            <mxPoint x="624.1600000000003" y="910.4000000000005" as="targetPoint" />
          </mxGeometry>
        </mxCell>
        <mxCell id="feKV-zDJUrqjYpNTKVkU-57" value="&amp;lt;&amp;lt;includes&amp;gt;&amp;gt;" style="edgeLabel;resizable=0;html=1;align=center;verticalAlign=middle;" parent="feKV-zDJUrqjYpNTKVkU-56" connectable="0" vertex="1">
          <mxGeometry relative="1" as="geometry" />
        </mxCell>
        <mxCell id="feKV-zDJUrqjYpNTKVkU-58" value="" style="endArrow=classic;html=1;rounded=0;entryX=0.5;entryY=1;entryDx=0;entryDy=0;exitX=0.5;exitY=0;exitDx=0;exitDy=0;dashed=1;" parent="1" source="feKV-zDJUrqjYpNTKVkU-26" target="feKV-zDJUrqjYpNTKVkU-27" edge="1">
          <mxGeometry relative="1" as="geometry">
            <mxPoint x="946.8" y="810" as="sourcePoint" />
            <mxPoint x="1056.8" y="809.5" as="targetPoint" />
          </mxGeometry>
        </mxCell>
        <mxCell id="feKV-zDJUrqjYpNTKVkU-59" value="&amp;lt;&amp;lt;includes&amp;gt;&amp;gt;" style="edgeLabel;resizable=0;html=1;align=center;verticalAlign=middle;" parent="feKV-zDJUrqjYpNTKVkU-58" connectable="0" vertex="1">
          <mxGeometry relative="1" as="geometry" />
        </mxCell>
        <mxCell id="feKV-zDJUrqjYpNTKVkU-60" value="" style="endArrow=classic;html=1;rounded=0;entryX=0.5;entryY=0;entryDx=0;entryDy=0;exitX=0.5;exitY=1;exitDx=0;exitDy=0;dashed=1;" parent="1" source="feKV-zDJUrqjYpNTKVkU-26" target="feKV-zDJUrqjYpNTKVkU-24" edge="1">
          <mxGeometry relative="1" as="geometry">
            <mxPoint x="606.8" y="630" as="sourcePoint" />
            <mxPoint x="586.8" y="770" as="targetPoint" />
          </mxGeometry>
        </mxCell>
        <mxCell id="feKV-zDJUrqjYpNTKVkU-61" value="&amp;lt;&amp;lt;extends&amp;gt;&amp;gt;" style="edgeLabel;resizable=0;html=1;align=center;verticalAlign=middle;" parent="feKV-zDJUrqjYpNTKVkU-60" connectable="0" vertex="1">
          <mxGeometry relative="1" as="geometry" />
        </mxCell>
        <mxCell id="feKV-zDJUrqjYpNTKVkU-62" value="Administrador" style="shape=umlActor;verticalLabelPosition=bottom;verticalAlign=top;html=1;outlineConnect=0;" parent="1" vertex="1">
          <mxGeometry x="20" y="1490" width="30" height="60" as="geometry" />
        </mxCell>
        <mxCell id="feKV-zDJUrqjYpNTKVkU-65" style="edgeStyle=orthogonalEdgeStyle;rounded=0;orthogonalLoop=1;jettySize=auto;html=1;endArrow=none;endFill=0;" parent="1" source="feKV-zDJUrqjYpNTKVkU-64" target="feKV-zDJUrqjYpNTKVkU-62" edge="1">
          <mxGeometry relative="1" as="geometry">
            <Array as="points">
              <mxPoint x="80" y="1250" />
              <mxPoint x="80" y="1520" />
            </Array>
          </mxGeometry>
        </mxCell>
        <mxCell id="feKV-zDJUrqjYpNTKVkU-64" value="Gestión ABMC de los datos de alumnos&amp;nbsp;" style="ellipse;whiteSpace=wrap;html=1;" parent="1" vertex="1">
          <mxGeometry x="380" y="1210" width="120" height="80" as="geometry" />
        </mxCell>
        <mxCell id="feKV-zDJUrqjYpNTKVkU-67" style="edgeStyle=orthogonalEdgeStyle;rounded=0;orthogonalLoop=1;jettySize=auto;html=1;endArrow=none;endFill=0;entryX=0.5;entryY=0.5;entryDx=0;entryDy=0;entryPerimeter=0;exitX=0;exitY=0.5;exitDx=0;exitDy=0;" parent="1" source="feKV-zDJUrqjYpNTKVkU-66" target="feKV-zDJUrqjYpNTKVkU-62" edge="1">
          <mxGeometry relative="1" as="geometry">
            <mxPoint x="80" y="1310" as="targetPoint" />
            <Array as="points">
              <mxPoint x="80" y="1340" />
              <mxPoint x="80" y="1520" />
            </Array>
          </mxGeometry>
        </mxCell>
        <mxCell id="feKV-zDJUrqjYpNTKVkU-66" value="Gestión de asignaturas&amp;nbsp;" style="ellipse;whiteSpace=wrap;html=1;" parent="1" vertex="1">
          <mxGeometry x="380" y="1300" width="120" height="80" as="geometry" />
        </mxCell>
        <mxCell id="feKV-zDJUrqjYpNTKVkU-69" style="edgeStyle=orthogonalEdgeStyle;rounded=0;orthogonalLoop=1;jettySize=auto;html=1;entryX=0.5;entryY=0.5;entryDx=0;entryDy=0;entryPerimeter=0;endArrow=none;endFill=0;exitX=0;exitY=0.5;exitDx=0;exitDy=0;" parent="1" source="feKV-zDJUrqjYpNTKVkU-70" target="feKV-zDJUrqjYpNTKVkU-62" edge="1">
          <mxGeometry relative="1" as="geometry">
            <Array as="points">
              <mxPoint x="380" y="1520" />
            </Array>
          </mxGeometry>
        </mxCell>
        <mxCell id="R31duQRiY52IZpwxVwha-8" style="edgeStyle=orthogonalEdgeStyle;rounded=0;orthogonalLoop=1;jettySize=auto;html=1;entryX=0.5;entryY=0.5;entryDx=0;entryDy=0;entryPerimeter=0;endArrow=none;endFill=0;" edge="1" parent="1" source="feKV-zDJUrqjYpNTKVkU-68" target="feKV-zDJUrqjYpNTKVkU-62">
          <mxGeometry relative="1" as="geometry">
            <Array as="points">
              <mxPoint x="80" y="1430" />
              <mxPoint x="80" y="1520" />
            </Array>
          </mxGeometry>
        </mxCell>
        <mxCell id="feKV-zDJUrqjYpNTKVkU-68" value="Gestión de titulaciones" style="ellipse;whiteSpace=wrap;html=1;" parent="1" vertex="1">
          <mxGeometry x="380" y="1390" width="120" height="80" as="geometry" />
        </mxCell>
        <mxCell id="feKV-zDJUrqjYpNTKVkU-70" value="Gestión de grupos" style="ellipse;whiteSpace=wrap;html=1;" parent="1" vertex="1">
          <mxGeometry x="380" y="1480" width="120" height="80" as="geometry" />
        </mxCell>
        <mxCell id="feKV-zDJUrqjYpNTKVkU-71" value="Consultar información del grupo" style="ellipse;whiteSpace=wrap;html=1;" parent="1" vertex="1">
          <mxGeometry x="616.79" y="1480" width="120" height="80" as="geometry" />
        </mxCell>
        <mxCell id="feKV-zDJUrqjYpNTKVkU-73" value="" style="endArrow=classic;html=1;rounded=0;entryX=1;entryY=0.5;entryDx=0;entryDy=0;exitX=0;exitY=0.5;exitDx=0;exitDy=0;dashed=1;" parent="1" source="feKV-zDJUrqjYpNTKVkU-71" target="feKV-zDJUrqjYpNTKVkU-70" edge="1">
          <mxGeometry relative="1" as="geometry">
            <mxPoint x="450" y="1440" as="sourcePoint" />
            <mxPoint x="380" y="1490" as="targetPoint" />
          </mxGeometry>
        </mxCell>
        <mxCell id="feKV-zDJUrqjYpNTKVkU-74" value="&amp;lt;&amp;lt;extends&amp;gt;&amp;gt;" style="edgeLabel;resizable=0;html=1;align=center;verticalAlign=middle;" parent="feKV-zDJUrqjYpNTKVkU-73" connectable="0" vertex="1">
          <mxGeometry relative="1" as="geometry" />
        </mxCell>
        <mxCell id="feKV-zDJUrqjYpNTKVkU-76" style="edgeStyle=orthogonalEdgeStyle;rounded=0;orthogonalLoop=1;jettySize=auto;html=1;entryX=0.5;entryY=0.5;entryDx=0;entryDy=0;entryPerimeter=0;endArrow=none;endFill=0;" parent="1" source="feKV-zDJUrqjYpNTKVkU-75" target="feKV-zDJUrqjYpNTKVkU-62" edge="1">
          <mxGeometry relative="1" as="geometry">
            <Array as="points">
              <mxPoint x="80" y="1600" />
              <mxPoint x="80" y="1520" />
            </Array>
          </mxGeometry>
        </mxCell>
        <mxCell id="feKV-zDJUrqjYpNTKVkU-78" style="edgeStyle=orthogonalEdgeStyle;rounded=0;orthogonalLoop=1;jettySize=auto;html=1;entryX=0.5;entryY=0.5;entryDx=0;entryDy=0;entryPerimeter=0;endArrow=none;endFill=0;exitX=0;exitY=0.5;exitDx=0;exitDy=0;" parent="1" source="feKV-zDJUrqjYpNTKVkU-77" target="feKV-zDJUrqjYpNTKVkU-62" edge="1">
          <mxGeometry relative="1" as="geometry">
            <Array as="points">
              <mxPoint x="80" y="1700" />
              <mxPoint x="80" y="1520" />
            </Array>
          </mxGeometry>
        </mxCell>
        <mxCell id="R31duQRiY52IZpwxVwha-1" value="GEstion abmc mirar&amp;nbsp; e imprimir&amp;nbsp;" style="text;html=1;strokeColor=#d79b00;fillColor=#ffe6cc;align=center;verticalAlign=middle;whiteSpace=wrap;rounded=0;" vertex="1" parent="1">
          <mxGeometry x="623.59" y="1250" width="106.41" height="70" as="geometry" />
        </mxCell>
        <mxCell id="feKV-zDJUrqjYpNTKVkU-77" value="Consultar historial académico de un alumno" style="ellipse;whiteSpace=wrap;html=1;" parent="1" vertex="1">
          <mxGeometry x="380" y="1660" width="120" height="80" as="geometry" />
        </mxCell>
        <mxCell id="feKV-zDJUrqjYpNTKVkU-75" value="Consultar alumnos que no se pueden matricular" style="ellipse;whiteSpace=wrap;html=1;" parent="1" vertex="1">
          <mxGeometry x="380" y="1570" width="120" height="80" as="geometry" />
        </mxCell>
      </root>
    </mxGraphModel>
  </diagram>
</mxfile>
